# xmcd
#
# Track frame offsets:
#	150
#	16537
#	34517
#	51367
#	70977
#	90183
#	105514
#	122718
#	144477
#	161524
#	180883
#	199178
#	216018
#	231473
#	250844
#	265813
#
# Disc length: 3743 seconds
#
# Revision: 0
# Processed by: cddbd v1.5.2PL0 Copyright (c) Steve Scherf et al.
# Submitted via: dBpowerAMP V4.0
#
DISCID=cd0e9d10
DTITLE=Natasha Bedingfield - Unwritten
DYEAR=2004
DGENRE=
TTITLE0=These Words
TTITLE1=Single
TTITLE2=I'm A Bomb
TTITLE3=Unwritten
TTITLE4=I Bruise Easily
TTITLE5=If You're Gonna...
TTITLE6=Silent Movie
TTITLE7=We're All Mad
TTITLE8=Frogs and Princes
TTITLE9=Drop Me In The Middle (Featuring Bizarre Of D-12)
TTITLE10=Wild Horses
TTITLE11=Peace Of Me (Bonus Track)
TTITLE12=Size Matters (Bonus Track)
TTITLE13=The One That Got Away (Bonus Track)
TTITLE14=Untitled (Bonus Track)
TTITLE15=Single (Radio 1 Lounge Recording) (Bonus Track)
EXTD=
EXTT0=
EXTT1=
EXTT2=
EXTT3=
EXTT4=
EXTT5=
EXTT6=
EXTT7=
EXTT8=
EXTT9=
EXTT10=
EXTT11=
EXTT12=
EXTT13=
EXTT14=
EXTT15=
PLAYORDER=
